<?xml version="1.0" standalone="no"?>
<!DOCTYPE svg PUBLIC "-//W3C//DTD SVG 20010904//EN"
 "http://www.w3.org/TR/2001/REC-SVG-20010904/DTD/svg10.dtd">
<svg version="1.0" xmlns="http://www.w3.org/2000/svg"
 width="700.000000pt" height="700.000000pt" viewBox="0 0 700.000000 700.000000"
 preserveAspectRatio="xMidYMid meet">
<metadata>
Created by potrace 1.11, written by Peter Selinger 2001-2013
</metadata>
<g transform="translate(0.000000,700.000000) scale(0.100000,-0.100000)"
fill="#000000" stroke="none">
<path d="M0 4820 l0 -2180 118 0 c64 0 360 7 657 15 297 8 819 22 1160 30 341
9 621 17 622 18 1 1 135 718 297 1592 163 875 303 1609 312 1632 21 59 90 118
158 138 47 14 65 14 111 5 67 -14 131 -60 162 -116 18 -32 102 -475 403 -2122
209 -1145 380 -2085 380 -2089 0 -25 39 60 205 441 102 236 194 441 205 456
36 51 73 60 242 60 84 0 313 -4 508 -10 195 -5 551 -14 790 -20 239 -5 488
-12 553 -16 l117 -5 0 2175 0 2176 -3500 0 -3500 0 0 -2180z"/>
<path d="M3131 3573 c-134 -599 -252 -1107 -263 -1130 -21 -46 -60 -79 -108
-93 -17 -5 -235 -5 -492 0 -255 5 -753 14 -1108 20 -355 5 -761 13 -902 16
l-258 7 0 -1197 0 -1196 3500 0 3500 0 0 1195 0 1195 -122 0 c-68 0 -368 -7
-668 -15 -300 -8 -683 -17 -852 -21 -208 -5 -308 -10 -311 -18 -16 -37 -552
-1266 -569 -1302 -68 -145 -267 -144 -328 1 -9 22 -185 847 -391 1832 -206
986 -376 1793 -379 1793 -3 0 -115 -489 -249 -1087z"/>
</g>
</svg>
