<?xml version="1.0" encoding="UTF-8"?>
<svg width="32px" height="32px" viewBox="0 0 32 32" version="1.1" xmlns="http://www.w3.org/2000/svg" xmlns:xlink="http://www.w3.org/1999/xlink">
    <title>facebook</title>
    <g id="facebook" stroke="none" stroke-width="1" fill="none" fill-rule="evenodd">
        <g id="Group-11" transform="translate(2.000000, 2.000000)" fill="#8300BF" fill-rule="nonzero">
            <path d="M14,28 C6.27144053,27.9917327 0.00826731977,21.7285595 1.77635684e-15,14 C0.00826731977,6.27144053 6.27144053,0.00826731977 14,1.77635684e-15 C21.7285595,0.00826731977 27.9917327,6.27144053 28,14 C27.9917327,21.7285595 21.7285595,27.9917327 14,28 Z M14,2 C7.37555305,2.00716485 2.00716485,7.37555305 2,14 C2.00716485,20.624447 7.37555305,25.9928352 14,26 C20.624447,25.9928352 25.9928352,20.624447 26,14 C25.9928352,7.37555305 20.624447,2.00716485 14,2 L14,2 Z" id="Path_527"></path>
            <path d="M18.704,5.557 L16.161,5.557 C13.8341956,5.55865387 11.948206,7.44419602 11.946,9.771 L11.946,12.314 L9.403,12.314 L9.403,15.729 L11.946,15.729 L11.946,22.489 L15.361,22.489 L15.361,15.729 L17.905,15.729 L18.776,12.314 L15.361,12.314 L15.361,9.844 C15.3674578,9.36510813 15.7541081,8.97845785 16.233,8.972 L18.704,8.972 L18.704,5.557 Z" id="Path_528"></path>
        </g>
    </g>
</svg>