<?xml version="1.0" encoding="utf-8"?>
<!-- Generator: Adobe Illustrator 21.1.0, SVG Export Plug-In . SVG Version: 6.00 Build 0)  -->
<svg version="1.1" id="Layer_1" xmlns="http://www.w3.org/2000/svg" xmlns:xlink="http://www.w3.org/1999/xlink" x="0px" y="0px"
	 viewBox="0 0 20 20" style="enable-background:new 0 0 20 20;" xml:space="preserve">
<title>icon-files</title>
<g>
	<path d="M17.1,3.7c-0.5-0.1-1,0.3-1.1,0.8s0.3,1.1,0.8,1.1l1,0.2L16,17.7l-9.9-1.5V16H14V0H0v16h4.1l-0.3,1.8L17.7,20l2.4-15.8
		L17.1,3.7z M2,2h10v12H2V2z"/>
	<path d="M9,7H5C4.4,7,4,7.4,4,8s0.4,1,1,1h4c0.6,0,1-0.4,1-1S9.6,7,9,7z"/>
	<path d="M9,10H5c-0.6,0-1,0.4-1,1s0.4,1,1,1h4c0.6,0,1-0.4,1-1S9.6,10,9,10z"/>
	<path d="M5,6h3c0.6,0,1-0.4,1-1S8.6,4,8,4H5C4.4,4,4,4.4,4,5S4.4,6,5,6z"/>
</g>
</svg>
