<?xml version="1.0" encoding="UTF-8"?>
<svg width="24px" height="24px" viewBox="0 0 24 24" version="1.1" xmlns="http://www.w3.org/2000/svg" xmlns:xlink="http://www.w3.org/1999/xlink">
    <title>permalink</title>
    <g id="permalink" stroke="none" stroke-width="1" fill="none" fill-rule="evenodd">
        <polygon id="Line-6-Copy-2" fill="#FFFFFF" fill-rule="nonzero" transform="translate(12.500000, 12.000000) rotate(45.000000) translate(-12.500000, -12.000000) " points="13.5 8 13.5 16 11.5 16 11.5 8"></polygon>
        <path d="M14.9748737,15.8890873 L12.5,18.363961 C10.7426407,20.1213203 7.89339828,20.1213203 6.13603897,18.363961 C4.37867966,16.6066017 4.37867966,13.7573593 6.13603897,12 L8.6109127,9.52512627 L10.0251263,10.9393398 L7.55025253,13.4142136 C6.5739418,14.3905243 6.5739418,15.9734367 7.55025253,16.9497475 C8.48751083,17.8870058 9.98381328,17.9244961 10.9657951,17.0622185 L11.0857864,16.9497475 L13.5606602,14.4748737 L14.9748737,15.8890873 Z M18.863961,5.63603897 C20.6213203,7.39339828 20.6213203,10.2426407 18.863961,12 L16.3890873,14.4748737 L14.9748737,13.0606602 L17.4497475,10.5857864 C18.4260582,9.60947571 18.4260582,8.02656326 17.4497475,7.05025253 C16.5124892,6.11299423 15.0161867,6.0755039 14.0342049,6.93778154 L13.9142136,7.05025253 L11.4393398,9.52512627 L10.0251263,8.1109127 L12.5,5.63603897 C14.2573593,3.87867966 17.1066017,3.87867966 18.863961,5.63603897 Z" id="Shape" fill="#FFFFFF"></path>
    </g>
</svg>