<svg id="icons" xmlns="http://www.w3.org/2000/svg" viewBox="0 0 24 24"><title>DataPortal-Icons</title><circle cx="12" cy="15.824" r="0.753"/><path d="M12,14.256a.75.75,0,0,1-.75-.75v-1c0-.529.419-.818.862-1.124.623-.43,1.138-.83,1.138-1.376A1.209,1.209,0,0,0,12,8.756a1.252,1.252,0,0,0-1.25,1.25.75.75,0,0,1-1.5,0A2.753,2.753,0,0,1,12,7.256a2.721,2.721,0,0,1,2.75,2.75,3.3,3.3,0,0,1-1.786,2.61c-.079.055-.152.1-.214.147v.743A.75.75,0,0,1,12,14.256Z"/><path d="M12,5a7,7,0,1,1-7,7,7.008,7.008,0,0,1,7-7m0-2a9,9,0,1,0,9,9,9,9,0,0,0-9-9Z"/></svg>