<?xml version="1.0" encoding="utf-8"?>
<!-- Generator: Adobe Illustrator 22.1.0, SVG Export Plug-In . SVG Version: 6.00 Build 0)  -->
<svg version="1.1" id="storage" xmlns="http://www.w3.org/2000/svg" xmlns:xlink="http://www.w3.org/1999/xlink" x="0px" y="0px"
	 viewBox="0 0 24 24" style="enable-background:new 0 0 24 24;" xml:space="preserve">
<title>icon-storage</title>
<g>
	<path d="M2,10v12h20V10H2z M20,20H4v-8h16V20z"/>
	<path d="M9,17h6c0.6,0,1-0.4,1-1s-0.4-1-1-1H9c-0.6,0-1,0.4-1,1S8.4,17,9,17z"/>
	<path d="M7,4h10c0.6,0,1-0.4,1-1s-0.4-1-1-1H7C6.4,2,6,2.4,6,3S6.4,4,7,4z"/>
	<path d="M5,8h14c0.6,0,1-0.4,1-1s-0.4-1-1-1H5C4.4,6,4,6.4,4,7S4.4,8,5,8z"/>
</g>
</svg>
