<svg xmlns="http://www.w3.org/2000/svg" viewBox="0 0 24 24"><title>FullScreenIcon</title><g id="fullscreen-2" data-name="fullscreen"><path d="M18.217,4.748a.862.862,0,0,0-.414-.224L13.735,4.5a.908.908,0,0,0-.9.88.86.86,0,0,0,.245.638.91.91,0,0,0,.655.285H15.4L12.431,9.272a.923.923,0,0,0-.013,1.279.874.874,0,0,0,.636.282h.02a.922.922,0,0,0,.655-.268c.137-.131.271-.266.4-.4L16.7,7.6V9.264a.912.912,0,0,0,.882.9.932.932,0,0,0,.639-.248.918.918,0,0,0,.283-.655V5.4A.91.91,0,0,0,18.217,4.748Z" style="fill:#fff"/><path d="M11.584,11.45a.877.877,0,0,0-.635-.283.922.922,0,0,0-.68.268c-.118.115-.233.231-.348.347L7.3,14.4V12.735a.908.908,0,0,0-.879-.9.834.834,0,0,0-.64.245.915.915,0,0,0-.285.655V16.6a.9.9,0,0,0,.285.655.844.844,0,0,0,.409.222l4.071.025a.91.91,0,0,0,.9-.881.873.873,0,0,0-.248-.64.919.919,0,0,0-.654-.283H8.6l2.968-2.968A.921.921,0,0,0,11.584,11.45Z" style="fill:#fff"/></g></svg>