<?xml version="1.0" encoding="UTF-8"?>
<svg width="13px" height="17px" viewBox="0 0 13 17" version="1.1" xmlns="http://www.w3.org/2000/svg" xmlns:xlink="http://www.w3.org/1999/xlink">
    <!-- Generator: Sketch 62 (91390) - https://sketch.com -->
    <title>noun_map pin_3095134</title>
    <desc>Created with Sketch.</desc>
    <g id="Symbols" stroke="none" stroke-width="1" fill="none" fill-rule="evenodd">
        <g id="cards/upcoming-events-stacked" transform="translate(-20.000000, -386.000000)" fill="#000000">
            <g id="noun_map-pin_3095134" transform="translate(20.000000, 386.000000)">
                <path d="M6.4778157,0 C10.0716724,0 13,2.95069034 13,6.52728468 C13,10.729783 10.5153584,13.9487179 7.45392491,16.6311637 C6.92150171,17.1229454 6.07849829,17.1229454 5.54607509,16.6311637 C2.48464164,13.9487179 0,10.729783 0,6.52728468 C0,2.95069034 2.92832765,0 6.4778157,0 Z M6.5,4 C7.89344262,4 9,5.14754098 9,6.5 C9,7.89344262 7.89344262,9 6.5,9 C5.14754098,9 4,7.89344262 4,6.5 C4,5.14754098 5.14754098,4 6.5,4 Z" id="Shape"></path>
            </g>
        </g>
    </g>
</svg>