<?xml version="1.0" encoding="UTF-8"?>
<svg width="32px" height="32px" viewBox="0 0 32 32" version="1.1" xmlns="http://www.w3.org/2000/svg" xmlns:xlink="http://www.w3.org/1999/xlink">
    <title>linked</title>
    <g id="linked" stroke="none" stroke-width="1" fill="none" fill-rule="evenodd">
        <g id="Group-13" transform="translate(2.000000, 2.000000)" fill="#8300BF" fill-rule="nonzero">
            <path d="M14,28 C6.2680135,28 1.77635684e-15,21.7319865 1.77635684e-15,14 C1.77635684e-15,6.2680135 6.2680135,-7.10542736e-15 14,-7.10542736e-15 C21.7319865,-7.10542736e-15 28,6.2680135 28,14 C27.9774825,21.7226402 21.7226402,27.9774825 14,28 Z M14,2 C7.372583,2 2,7.372583 2,14 C2,20.627417 7.372583,26 14,26 C20.627417,26 26,20.627417 26,14 C25.9807773,7.38056166 20.6194383,2.01922272 14,2 Z" id="Path_545"></path>
            <path d="M16.497,10.811 C17.4977466,10.803745 18.4596101,11.1980834 19.1672634,11.9057366 C19.8749166,12.6133899 20.269255,13.5752534 20.262,14.576 L20.262,18.955 L17.723,18.955 L17.723,14.576 C17.723,13.8988989 17.1741011,13.35 16.497,13.35 C15.8198989,13.35 15.271,13.8988989 15.271,14.576 L15.271,18.955 L12.731,18.955 L12.731,14.576 C12.7237418,13.5750788 13.1182168,12.6130611 13.8260876,11.9053783 C14.5339583,11.1976955 15.4960807,10.8034759 16.497,10.811 L16.497,10.811 Z" id="Path_546"></path>
            <rect id="Rectangle_304" x="7.652" y="11.424" width="2.54" height="7.531"></rect>
            <circle id="Ellipse_42" cx="8.966" cy="8.271" r="1.226"></circle>
        </g>
    </g>
</svg>