<?xml version="1.0" encoding="utf-8"?>
<!-- Generator: Adobe Illustrator 21.1.0, SVG Export Plug-In . SVG Version: 6.00 Build 0)  -->
<svg version="1.1" id="Zoom" xmlns="http://www.w3.org/2000/svg" xmlns:xlink="http://www.w3.org/1999/xlink" x="0px" y="0px"
	 viewBox="0 0 24 24" style="enable-background:new 0 0 24 24;" xml:space="preserve">
<title>icon-magnifying-glass</title>
<path d="M13,4c-3.3,0-6,2.7-6,6c0,1.3,0.4,2.5,1.1,3.5l-4.8,4.8c-0.4,0.4-0.4,1,0,1.4C3.5,19.9,3.7,20,4,20s0.5-0.1,0.7-0.3l4.8-4.8
	c1,0.7,2.2,1.1,3.5,1.1c3.3,0,6-2.7,6-6C19,6.7,16.3,4,13,4z M13,14c-2.2,0-4-1.8-4-4c0-2.2,1.8-4,4-4c2.2,0,4,1.8,4,4
	S15.2,14,13,14z"/>
</svg>
