<?xml version="1.0" encoding="utf-8"?>
<!-- Generator: Adobe Illustrator 24.0.2, SVG Export Plug-In . SVG Version: 6.00 Build 0)  -->
<svg version="1.1" id="Layer_1" xmlns="http://www.w3.org/2000/svg" xmlns:xlink="http://www.w3.org/1999/xlink" x="0px" y="0px"
	 viewBox="0 0 24 19.5" style="enable-background:new 0 0 24 19.5;" xml:space="preserve">
<path d="M7.5,19.5c9.1,0,14-7.5,14-14c0-0.2,0-0.4,0-0.6c1-0.7,1.8-1.6,2.5-2.5c-0.9,0.4-1.9,0.7-2.8,0.8c1-0.6,1.8-1.6,2.2-2.7
	c-1,0.6-2,1-3.1,1.2c-1.9-2-5-2.1-7-0.2c-1.3,1.2-1.8,3-1.4,4.7C7.9,5.8,4.2,4,1.7,0.9C0.4,3.1,1,6,3.2,7.5C2.4,7.4,1.6,7.2,1,6.9
	v0.1c0,2.3,1.7,4.4,4,4.8c-0.7,0.2-1.5,0.2-2.2,0.1c0.6,2,2.5,3.4,4.6,3.4c-1.7,1.4-3.9,2.1-6.1,2.1c-0.4,0-0.8,0-1.2-0.1
	C2.3,18.7,4.9,19.5,7.5,19.5"/>
</svg>
