<svg height='100px' width='100px'  fill="#000000" xmlns="http://www.w3.org/2000/svg" xmlns:xlink="http://www.w3.org/1999/xlink" version="1.1" x="0px" y="0px" viewBox="0 0 512 512" style="enable-background:new 0 0 512 512;" xml:space="preserve"><g><path d="M50.378,408.116l137.167,36.44c3.145,0.835,6.458,0.803,9.585-0.095l130.799-37.528l123.531,39.955   c1.812,0.586,3.681,0.874,5.538,0.874c3.759,0,7.476-1.178,10.591-3.445c4.656-3.387,7.41-8.798,7.41-14.555V122.629   c0-7.929-5.188-14.925-12.777-17.226L333.467,66.362c-3.421-1.037-7.073-1.032-10.491,0.013l-130.929,40.07L60.049,67.872   c-5.442-1.59-11.311-0.524-15.845,2.875C39.669,74.145,37,79.482,37,85.149v305.57C37,398.88,42.491,406.021,50.378,408.116z    M307.641,375.301l-100.077,28.713V139.344l100.077-30.628V375.301z M439,405.021l-95.359-30.843V107.065L439,135.981V405.021z    M73,109.162l98.564,28.803v265.097L73,376.877V109.162z"></path></g></svg>