<svg xmlns="http://www.w3.org/2000/svg" viewBox="0 0 24 24"><title>preset</title><g id="preset"><g id="_preset_" data-name="&lt;preset&gt;"><path d="M3,6H4.18A3,3,0,0,0,9.82,6H21a1,1,0,0,0,0-2H9.82A3,3,0,0,0,4.18,4H3A1,1,0,0,0,3,6ZM7,4A1,1,0,1,1,6,5H6A1,1,0,0,1,7,4Z"/><path d="M21,18H9.82a3,3,0,0,0-5.64,0H3a1,1,0,0,0,0,2H4.18a3,3,0,0,0,5.64,0H21a1,1,0,0,0,0-2ZM7,20a1,1,0,1,1,1-1A1,1,0,0,1,7,20Z"/><path d="M3,13H14.18a3,3,0,1,0,0-2H3a1,1,0,0,0,0,2Zm14-2a1,1,0,1,1-1,1A1,1,0,0,1,17,11Z"/></g></g></svg>