<?xml version="1.0" encoding="utf-8"?>
<!-- Generator: Adobe Illustrator 25.2.1, SVG Export Plug-In . SVG Version: 6.00 Build 0)  -->
<svg version="1.1" id="Layer_1" xmlns="http://www.w3.org/2000/svg" xmlns:xlink="http://www.w3.org/1999/xlink" x="0px" y="0px"
	 viewBox="0 0 32 32" style="enable-background:new 0 0 32 32;" xml:space="preserve">
<style type="text/css">
	.st0{fill:#8300BF;}
	.st1{fill-rule:evenodd;clip-rule:evenodd;fill:#8300BF;}
</style>
<g id="permalink">
	<g id="Group" transform="translate(2.000000, 2.000000)">
		<g id="Group-13-Copy">
			<g id="Path_545">
				<path class="st0" d="M14,28C6.3,28,0,21.7,0,14S6.3,0,14,0s14,6.3,14,14C28,21.7,21.7,28,14,28z M14,2C7.4,2,2,7.4,2,14
					s5.4,12,12,12s12-5.4,12-12C26,7.4,20.6,2,14,2z"/>
			</g>
		</g>
		<g id="Line-6-Copy-2">
			<rect x="9.5" y="12.5" transform="matrix(0.7071 -0.7071 0.7071 0.7071 -5.6109 13.5459)" class="st0" width="8" height="2"/>
		</g>
		<g id="Combined-Shape">
			<path class="st1" d="M16,17.4l-2.5,2.5c-1.8,1.8-4.6,1.8-6.4,0c-1.8-1.8-1.8-4.6,0-6.4l2.5-2.5l1.4,1.4L8.6,15c-1,1-1,2.6,0,3.5
				c0.9,0.9,2.4,1,3.4,0.1l0.1-0.1l2.5-2.5L16,17.4z M19.9,7.2c1.8,1.8,1.8,4.6,0,6.4L17.4,16L16,14.6l2.5-2.5c1-1,1-2.6,0-3.5
				c-0.9-0.9-2.4-1-3.4-0.1L15,8.6l-2.5,2.5l-1.4-1.4l2.5-2.5C15.3,5.4,18.2,5.4,19.9,7.2z"/>
		</g>
	</g>
</g>
</svg>
