<?xml version="1.0" encoding="UTF-8"?>
<svg width="24px" height="24px" viewBox="0 0 24 24" version="1.1" xmlns="http://www.w3.org/2000/svg" xmlns:xlink="http://www.w3.org/1999/xlink">
    <title>View</title>
    <g id="View" stroke="none" stroke-width="1" fill="none" fill-rule="evenodd">
        <path d="M12,7.25 C9.37664744,7.25 7.25,9.37664744 7.25,12 C7.25,14.6233526 9.37664744,16.75 12,16.75 C14.6233526,16.75 16.75,14.6233526 16.75,12 C16.75,9.37664744 14.6233526,7.25 12,7.25 Z M12,8.75 C13.7949254,8.75 15.25,10.2050746 15.25,12 C15.25,13.7949254 13.7949254,15.25 12,15.25 C10.2050746,15.25 8.75,13.7949254 8.75,12 C8.75,10.2050746 10.2050746,8.75 12,8.75 Z" id="Oval" fill="#FFFFFF" fill-rule="nonzero"></path>
        <path d="M12,6.75 C8.38411783,6.75 2.75,9.27879118 2.75,12 C2.75,14.7212088 8.38411783,17.25 12,17.25 C15.6158822,17.25 21.25,14.7212088 21.25,12 C21.25,9.27879118 15.6158822,6.75 12,6.75 Z M12,8.25 C12.9820327,8.25 14.1951949,8.50400196 15.3677675,8.90080658 L15.8339877,9.06688098 C16.296755,9.24004436 16.7472312,9.43368392 17.1680264,9.6406829 L17.5782839,9.85187143 C18.8420233,10.5330674 19.75,11.3244402 19.75,12 C19.75,12.6755598 18.8420233,13.4669326 17.5782839,14.1481286 L17.1680264,14.3593171 C16.7472312,14.5663161 16.296755,14.7599556 15.8339877,14.933119 L15.3677675,15.0991934 C14.1951949,15.495998 12.9820327,15.75 12,15.75 C11.0179673,15.75 9.80480509,15.495998 8.63223246,15.0991934 L8.16601227,14.933119 C7.70324501,14.7599556 7.25276876,14.5663161 6.83197356,14.3593171 L6.42171612,14.1481286 C5.15797669,13.4669326 4.25,12.6755598 4.25,12 C4.25,11.3244402 5.15797669,10.5330674 6.42171612,9.85187143 L6.83197356,9.6406829 C7.25276876,9.43368392 7.70324501,9.24004436 8.16601227,9.06688098 L8.63223246,8.90080658 C9.80480509,8.50400196 11.0179673,8.25 12,8.25 Z" id="Oval" fill="#FFFFFF" fill-rule="nonzero"></path>
    </g>
</svg>