<?xml version="1.0" encoding="UTF-8"?>
<svg width="32px" height="32px" viewBox="0 0 32 32" version="1.1" xmlns="http://www.w3.org/2000/svg" xmlns:xlink="http://www.w3.org/1999/xlink">
    <title>twitter</title>
    <g id="twitter" stroke="none" stroke-width="1" fill="none" fill-rule="evenodd">
        <g id="Group-12" transform="translate(1.610000, 2.000000)" fill="#8300BF" fill-rule="nonzero">
            <path d="M14,28 C6.27144053,27.9917327 0.00826731977,21.7285595 1.77635684e-15,14 C0.00826731977,6.27144053 6.27144053,0.00826731977 14,1.77635684e-15 C21.7285595,0.00826731977 27.9917327,6.27144053 28,14 C27.9917327,21.7285595 21.7285595,27.9917327 14,28 Z M14,2 C7.37555305,2.00716485 2.00716485,7.37555305 2,14 C2.00716485,20.624447 7.37555305,25.9928352 14,26 C20.624447,25.9928352 25.9928352,20.624447 26,14 C25.9928352,7.37555305 20.624447,2.00716485 14,2 L14,2 Z" id="Path_525"></path>
            <path d="M20.926,8.533 C20.324362,8.95845777 19.6572363,9.28273152 18.951,9.493 C18.4639117,8.9322979 17.7733598,8.58895413 17.0323139,8.5390255 C16.291268,8.48909688 15.5609002,8.73670492 15.003,9.227 C14.3824849,9.76085703 14.0308423,10.5425292 14.043,11.361 L14.043,12.001 C11.8374034,12.0417649 9.75636848,10.9813745 8.493,9.173 C8.493,9.173 5.986,14.773 11.593,17.284 C10.2976235,18.1377372 8.76841106,18.5666158 7.218,18.511 C12.818,21.605 19.65,18.511 19.65,11.361 C19.6561605,11.1814351 19.6383366,11.0018508 19.597,10.827 C20.2555294,10.2093294 20.717729,9.41152208 20.926,8.533 Z" id="Path_526"></path>
        </g>
    </g>
</svg>