<?xml version="1.0" encoding="utf-8"?>
<!-- Generator: Adobe Illustrator 24.0.2, SVG Export Plug-In . SVG Version: 6.00 Build 0)  -->
<svg version="1.1" id="Layer_1" xmlns="http://www.w3.org/2000/svg" xmlns:xlink="http://www.w3.org/1999/xlink" x="0px" y="0px"
	 viewBox="0 0 24 16.9" style="enable-background:new 0 0 24 16.9;" xml:space="preserve">
<path d="M23.5,2.6c-0.3-1-1.1-1.9-2.1-2.1C19.5,0,12,0,12,0S4.5,0,2.6,0.5c-1,0.3-1.8,1.1-2.1,2.1C0,4.5,0,8.5,0,8.5s0,3.9,0.5,5.8
	c0.3,1,1.1,1.9,2.1,2.1c1.9,0.5,9.4,0.5,9.4,0.5s7.5,0,9.4-0.5c1-0.3,1.8-1.1,2.1-2.1C24,12.4,24,8.5,24,8.5S24,4.5,23.5,2.6z
	 M9.5,12V4.9l6.3,3.6L9.5,12z"/>
</svg>
