<?xml version="1.0" encoding="utf-8"?>
<!-- Generator: Adobe Illustrator 22.1.0, SVG Export Plug-In . SVG Version: 6.00 Build 0)  -->
<svg version="1.1" id="license" xmlns="http://www.w3.org/2000/svg" xmlns:xlink="http://www.w3.org/1999/xlink" x="0px" y="0px"
	 viewBox="0 0 24 24" style="enable-background:new 0 0 24 24;" xml:space="preserve">
<title>icon-license</title>
<path d="M20.2,12l-1.7-5H20c0.6,0,1-0.4,1-1s-0.4-1-1-1h-4.1c-0.4-1.7-2-3-3.9-3c-1.9,0-3.4,1.3-3.9,3H4C3.4,5,3,5.4,3,6s0.4,1,1,1
	h1.5l-1.7,5H2v1c0,2.2,1.8,4,4,4s4-1.8,4-4v-1H8.2L6.5,7h1.6C8.5,8.4,9.6,9.5,11,9.9V20l-4,1v1h4h2h4v-1l-4-1V9.9
	c1.4-0.4,2.5-1.5,2.9-2.9h1.6l-1.7,5H14v1c0,2.2,1.8,4,4,4s4-1.8,4-4v-1H20.2z M4.9,12L6,8.6L7.1,12H4.9z M12,8c-1.1,0-2-0.9-2-2
	s0.9-2,2-2c1.1,0,2,0.9,2,2S13.1,8,12,8z M18,8.6l1.1,3.4h-2.3L18,8.6z"/>
</svg>
