<svg id="Layer_2" data-name="Layer 2" xmlns="http://www.w3.org/2000/svg" viewBox="0 0 535.5 133.58"><defs><style>.cls-1,.cls-2{stroke:#fff;stroke-miterlimit:10;}.cls-2{fill-rule:evenodd;}</style></defs><path class="cls-1" d="M476.82,360.5h20c14.65,0,24.54,4.95,24.54,19.5,0,14-10,20.5-24.54,20.5H485.31v26.26h-8.49Zm19,33.13c11.52,0,17.07-4.24,17.07-13.63s-5.65-12.63-17.07-12.63h-10.5v26.26Z" transform="translate(-414.18 -294.89)"/><path class="cls-1" d="M552.57,360.5h9.7l22.32,66.26H575.5l-11.41-37c-2.33-7.37-4.55-14.64-6.57-22.32h-.4c-2.12,7.68-4.24,14.95-6.57,22.32l-11.61,37h-8.69Zm-10.5,39.29h30.4v6.87h-30.4Z" transform="translate(-414.18 -294.89)"/><path class="cls-1" d="M597.72,360.5h20.7c13.44,0,23.23,4.85,23.23,18.69,0,13.23-9.79,19.59-23.23,19.59H606.3v28h-8.58Zm19.49,31.41c10.3,0,16-4.24,16-12.72,0-8.69-5.66-11.82-16-11.82H606.3v24.54Zm6.16.11,20.2,34.74H634l-17.27-30.3Z" transform="translate(-414.18 -294.89)"/><path class="cls-1" d="M654.89,393.63c0-21.31,12.42-34.34,29.69-34.34a24.83,24.83,0,0,1,18.18,8.08l-4.85,5.35a17.77,17.77,0,0,0-13.33-6c-12.63,0-20.91,10.2-20.91,26.66,0,16.66,8.28,27.07,20.91,27.07,6.06,0,10.7-2.63,14.84-7.28l4.85,5.16a25.59,25.59,0,0,1-20.5,9.59C667.41,428,654.89,415.25,654.89,393.63Z" transform="translate(-414.18 -294.89)"/><path class="cls-1" d="M733.76,410.3V361.61H716.39v-6.76h25.76v56c0,7.07,3.84,10.1,9.69,10.1a22.22,22.22,0,0,0,9.19-2.22l2.13,6.26C758.61,427,755.38,428,750,428,739.52,428,733.76,421.91,733.76,410.3Z" transform="translate(-414.18 -294.89)"/><path class="cls-1" d="M801.33,384.44H778.61v-6.77h31.1v49.09h-8.38ZM798,360.91a6.67,6.67,0,0,1,13.33,0c0,3.94-2.83,6.46-6.66,6.46S798,364.85,798,360.91Z" transform="translate(-414.18 -294.89)"/><path class="cls-1" d="M839.51,377.67h6.87l.7,8.29h.41c5.15-5.36,10.81-9.5,18.48-9.5,11.62,0,17,6.87,17,19.8v30.5h-8.38V397.37c0-9.29-3.24-13.64-11.21-13.64-5.86,0-9.8,2.93-15.46,8.79v34.24h-8.38Z" transform="translate(-414.18 -294.89)"/><path class="cls-1" d="M901.32,354.85h8.38v48.58h.41l26.36-25.76h9.59L909.7,413.43v13.33h-8.38Zm18.89,45.85,5-5.45,23.43,31.51H939.4Z" transform="translate(-414.18 -294.89)"/><path class="cls-2" d="M436.17,350.18a20.8,20.8,0,0,1,20.42,21l-.4,34.58a20.75,20.75,0,0,1-41.5-.49l.42-36.11,6.92.08-.42,36.12a13.83,13.83,0,0,0,27.66.32l.4-34.58a13.88,13.88,0,0,0-13.6-14l-1.53,0,.1-6.91Z" transform="translate(-414.18 -294.89)"/><path class="cls-2" d="M435.74,371.47a20.81,20.81,0,0,1-20.41-21l.4-34.58a20.75,20.75,0,0,1,41.5.48l-.42,36.12-6.92-.08.42-36.12a13.83,13.83,0,0,0-27.66-.32l-.4,34.58a13.88,13.88,0,0,0,13.6,14l1.53,0-.1,6.91Z" transform="translate(-414.18 -294.89)"/></svg>