<?xml version="1.0" encoding="UTF-8"?>
<svg width="348px" height="210px" viewBox="0 0 348 210" version="1.1" xmlns="http://www.w3.org/2000/svg" xmlns:xlink="http://www.w3.org/1999/xlink">
    <!-- Generator: Sketch 55.2 (78181) - https://sketchapp.com -->
    <title>mapcore-card-image</title>
    <desc>Created with Sketch.</desc>
    <g id="mapcore-card-image" stroke="none" stroke-width="1" fill="none" fill-rule="evenodd">
        <rect fill="#FFFFFF" x="0" y="0" width="348" height="210"></rect>
        <g id="illo-research-platform" transform="translate(58.000000, 5.500000)" fill-rule="nonzero">
            <g id="lines" transform="translate(0.000000, 2.955414)" fill="#E5C6E2">
                <path d="M228.107972,73.2175981 L228.150546,73.0045084 C228.278266,72.4504754 228.150546,71.8538244 227.852532,71.3424093 C227.511946,70.8736121 227.043639,70.5326687 226.447612,70.4048149 L213.590462,67.7198855 C211.759809,67.3363242 209.929155,67.6772676 208.353941,68.7000978 C206.991594,69.5950743 206.012407,70.8736121 205.544101,72.4078575 C204.181754,72.109532 202.819407,71.8964424 201.45706,71.6833527 L201.45706,55.3180689 C201.45706,53.0167008 199.583833,51.141512 197.284872,51.141512 L158.968863,51.141512 L173.230933,26.764058 C173.614093,26.8919118 174.039827,26.9771476 174.508133,26.9771476 C176.594227,26.9771476 178.297161,25.2724305 178.297161,23.1841521 C178.297161,21.0958737 176.594227,19.3911567 174.508133,19.3911567 C172.42204,19.3911567 170.719106,21.0958737 170.719106,23.1841521 C170.719106,24.5479258 171.442853,25.6986098 172.507186,26.3804966 L158.03225,51.0988941 L150.837355,51.0988941 L150.837355,51.9512527 L157.563943,51.9512527 L143.599886,75.7320558 L110.818412,7.28766547 C111.840172,6.60577864 112.478773,5.45509462 112.478773,4.13393889 C112.478773,2.04566048 110.775839,0.340943414 108.689745,0.340943414 C106.603651,0.340943414 104.900717,2.04566048 104.900717,4.13393889 C104.900717,6.2222173 106.603651,7.92693437 108.689745,7.92693437 C109.158052,7.92693437 109.626359,7.84169851 110.052092,7.67122681 L143.046433,76.5844143 L136.319845,88.2191083 L95.1939952,65.8020788 L100.047356,30.0030204 C100.302796,30.0456383 100.558236,30.0882563 100.85625,30.0882563 C102.942344,30.0882563 104.645277,28.3835392 104.645277,26.2952608 C104.645277,24.2069824 102.942344,22.5022653 100.85625,22.5022653 C98.770156,22.5022653 97.0672223,24.2069824 97.0672223,26.2952608 C97.0672223,27.7442703 97.8761158,28.9801902 99.0681694,29.6194591 L77.057751,51.141512 L68.3727891,51.141512 L35.4635948,33.2846008 C35.8893283,32.3896243 36.1447683,31.3667941 36.1447683,30.3013459 C36.1447683,26.5083504 33.0794876,23.4398597 29.2904601,23.4398597 C25.5014325,23.4398597 22.4361518,26.5083504 22.4361518,30.3013459 C22.4361518,34.0943414 25.5014325,37.1628321 29.2904601,37.1628321 C31.7171406,37.1628321 33.8032344,35.9269122 35.0378614,34.0091055 L66.499562,51.141512 L39.6783558,51.141512 C37.3793953,51.141512 35.5061682,53.0167008 35.5061682,55.3180689 L35.5061682,91.6711603 L23.5430587,103.39109 L1.44749367,103.39109 L12.2611228,92.0121038 L30.3122203,92.0121038 L30.3122203,91.1597452 L25.1608458,91.1597452 L25.1608458,85.9603582 C25.1608458,85.7046506 24.9905524,85.5341789 24.7351124,85.5341789 L12.3462695,85.5341789 L10.5156158,83.701608 C10.4304691,83.6163722 10.3453224,83.5737543 10.2176023,83.5737543 L3.78902754,83.5737543 C3.53358748,83.5737543 3.36329411,83.744226 3.36329411,83.9999335 L3.36329411,85.7472685 L0.425733431,85.7472685 C0.170293372,85.7472685 0,85.9177402 0,86.1734478 L0,103.817269 C0,104.072977 0.170293372,104.243449 0.425733431,104.243449 L23.7133521,104.243449 C23.8410721,104.243449 23.9262188,104.200831 24.0113655,104.115595 L35.5487415,92.8644623 L35.5487415,134.63003 C32.3557408,134.544795 29.16274,134.246469 26.0123126,133.692436 C26.1400327,133.138403 26.182606,132.541752 26.182606,131.945101 C26.0974593,130.11253 25.3311392,128.407813 23.9687922,127.171893 C22.6064452,125.935973 20.8609381,125.296705 19.0302844,125.339322 C15.2412568,125.509794 12.2611228,128.706139 12.4314162,132.499134 C12.5165629,134.331705 13.2828831,136.036422 14.64523,137.272342 C15.9224303,138.465644 17.5827907,139.104913 19.2857244,139.104913 C19.3708711,139.104913 19.4560178,139.104913 19.5837378,139.104913 C22.4787252,138.977059 24.8628324,137.10187 25.7994459,134.544795 C29.0775934,135.098828 32.3557408,135.397153 35.5487415,135.482389 L35.5487415,149.716777 L82.9328724,149.716777 L77.6963512,188.200764 C77.3983378,188.115528 77.057751,188.072911 76.7171643,188.072911 C74.6310705,188.072911 72.9281368,189.777628 72.9281368,191.865906 C72.9281368,193.954184 74.6310705,195.658902 76.7171643,195.658902 C78.8032581,195.658902 80.5061918,193.954184 80.5061918,191.865906 C80.5061918,190.416897 79.6972983,189.180977 78.5478181,188.541708 L103.112637,146.605668 L109.030332,163.141423 L119.929108,127.04404 L132.658537,173.327108 L143.557313,142.684819 L147.133474,149.716777 L178.084294,149.716777 L180.596122,154.916164 L171.996306,159.391046 L172.379466,160.158169 L180.936708,155.725904 L182.001042,157.984654 L173.486373,162.416919 L173.869533,163.184041 L182.341629,158.751777 C182.724789,159.561518 183.022802,160.371258 183.235669,161.266235 L183.235669,161.223617 L175.657614,165.144466 L176.040774,165.911589 L183.448536,162.075975 C183.618829,162.970952 183.661402,163.908546 183.618829,164.84614 L178.424881,167.53107 L178.808041,168.298193 L183.533682,165.826353 C183.363389,167.31798 183.022802,168.809608 182.384202,170.301235 C177.828854,169.321023 174.252693,166.721329 172.379466,163.01357 L169.527052,157.473239 L168.760732,157.856801 L171.613146,163.397131 C173.57152,167.232744 177.360547,170.00291 182.043615,171.068358 C180.170388,175.500622 180.212961,180.188594 182.171335,184.024208 L185.194043,189.905481 L185.960363,189.52192 L184.555442,186.836991 L193.325551,182.404726 L192.942391,181.637604 L184.172282,186.069868 L183.022802,183.811118 L191.792911,179.378854 L191.409751,178.611731 L182.639642,183.043995 C182.299055,182.234255 182.001042,181.424514 181.830748,180.572155 L189.706817,176.608688 L189.323657,175.841566 L181.660455,179.677179 C181.490162,178.696967 181.447588,177.674136 181.532735,176.608688 L181.617882,176.821778 L186.854403,174.222084 L186.471243,173.454962 L181.617882,175.884184 C181.788175,174.349938 182.213909,172.773075 182.895082,171.23883 C187.237563,172.304278 190.64343,174.818735 192.474084,178.398641 L195.624512,184.535623 L196.390832,184.152061 L193.240404,178.01508 C191.324604,174.30732 187.70587,171.579773 183.235669,170.429089 C184.938603,166.124678 184.853456,161.56456 182.937655,157.856801 L178.978334,149.588923 L201.414486,149.588923 L201.414486,124.486964 L219.380437,134.246469 C219.252717,134.63003 219.16757,135.05621 219.16757,135.525007 C219.16757,137.613285 220.870504,139.318002 222.956598,139.318002 C225.042692,139.318002 226.745625,137.613285 226.745625,135.525007 C226.745625,133.436729 225.042692,131.732011 222.956598,131.732011 C221.594251,131.732011 220.444771,132.456516 219.763597,133.521964 L201.45706,123.54937 L201.45706,72.5783292 C202.73426,72.7914188 204.054034,73.0045084 205.331234,73.260216 C204.65006,76.9679756 207.034168,80.5904994 210.738048,81.3576221 L223.595198,84.0425515 C223.765491,84.0851694 223.893211,84.0851694 224.063505,84.0851694 C224.489238,84.0851694 224.914972,83.9573156 225.255558,83.744226 C225.723865,83.4032826 226.064452,82.9344854 226.192172,82.3378344 L226.234745,82.1247448 L227.128786,82.2952165 L227.511946,80.5052635 C227.682239,79.7807588 227.171359,79.056254 226.447612,78.9284003 L226.447612,78.9284003 C226.107025,78.8431644 225.723865,78.9284003 225.425852,79.1414899 C225.127838,79.3545795 224.914972,79.652905 224.829825,79.9938484 L224.446665,81.7838013 L225.340705,81.9542731 L225.298132,82.1673627 C225.212985,82.5083061 225.042692,82.8066316 224.744678,83.0197212 C224.446665,83.2328109 224.106078,83.2754288 223.722918,83.1901929 L210.865768,80.5052635 C207.545048,79.8233767 205.416381,76.5844143 206.140127,73.260216 C206.480714,71.6407348 207.417328,70.2769611 208.779675,69.3819847 C209.971728,68.614862 211.376649,68.2739186 212.738996,68.4017724 L210.525182,79.1414899 L211.376649,79.3119616 L213.590462,68.5296261 L226.234745,71.1719376 C226.575332,71.2571735 226.873345,71.4276452 227.086212,71.7259706 C227.299079,72.0242961 227.341652,72.3652395 227.256506,72.7488009 L227.213932,72.9618905 L226.319892,72.7914188 L225.936732,74.5813717 C225.851585,74.9223151 225.936732,75.3058765 226.149599,75.604202 C226.362465,75.9025275 226.660479,76.1156171 227.001066,76.2008529 C227.086212,76.2008529 227.171359,76.2434709 227.256506,76.2434709 C227.895106,76.2434709 228.448559,75.8172916 228.576279,75.1780227 L228.959439,73.3880698 L228.107972,73.2175981 Z M171.527999,23.2267701 C171.527999,21.6072888 172.847773,20.2861331 174.46556,20.2861331 C176.083347,20.2861331 177.403121,21.6072888 177.403121,23.2267701 C177.403121,24.8462513 176.083347,26.167407 174.46556,26.167407 C172.847773,26.167407 171.527999,24.8462513 171.527999,23.2267701 Z M105.752184,4.17655682 C105.752184,2.5570756 107.071958,1.23591987 108.689745,1.23591987 C110.307532,1.23591987 111.627306,2.5570756 111.627306,4.17655682 C111.627306,5.79603803 110.307532,7.11719376 108.689745,7.11719376 C107.071958,7.11719376 105.752184,5.79603803 105.752184,4.17655682 Z M97.8761158,26.2952608 C97.8761158,24.6757796 99.1958895,23.3546238 100.813677,23.3546238 C102.431464,23.3546238 103.751237,24.6757796 103.751237,26.2952608 C103.751237,27.914742 102.431464,29.2358977 100.813677,29.2358977 C99.1958895,29.2358977 97.8761158,27.914742 97.8761158,26.2952608 Z M29.3330334,36.3104736 C26.0123126,36.3104736 23.330192,33.6255442 23.330192,30.3013459 C23.330192,26.9771476 26.0123126,24.2922182 29.3330334,24.2922182 C32.6537542,24.2922182 35.3358748,26.9771476 35.3358748,30.3013459 C35.3358748,33.6255442 32.6111808,36.3104736 29.3330334,36.3104736 Z M3.78902754,86.642245 C4.0444676,86.642245 4.21476097,86.4717733 4.21476097,86.2160657 L4.21476097,84.4687307 L10.0047356,84.4687307 L11.8353894,86.3013016 C11.9205361,86.3865374 12.0056828,86.4291554 12.1334028,86.4291554 L24.2668056,86.4291554 L24.2668056,91.2023631 L12.0482561,91.2023631 C11.9205361,91.2023631 11.8353894,91.2449811 11.7502427,91.3302169 L0.851466862,102.794439 L0.851466862,86.642245 L3.78902754,86.642245 L3.78902754,86.642245 Z M19.5411645,138.295172 C17.9233775,138.33779 16.3907371,137.783757 15.1986835,136.718309 C14.0066299,135.610243 13.3254564,134.118615 13.2403097,132.541752 C13.1125897,129.217554 15.7095636,126.404771 19.0302844,126.276917 C19.1154311,126.276917 19.2005777,126.276917 19.2857244,126.276917 C20.8183648,126.276917 22.2658585,126.83095 23.3727654,127.896398 C24.564819,129.004464 25.2459925,130.496092 25.3311392,132.072955 C25.4588592,135.311917 22.8618853,138.1247 19.5411645,138.295172 Z M79.6121516,191.908524 C79.6121516,193.528005 78.292378,194.849161 76.674591,194.849161 C75.0568039,194.849161 73.7370303,193.528005 73.7370303,191.908524 C73.7370303,190.289043 75.0568039,188.967887 76.674591,188.967887 C78.292378,188.967887 79.6121516,190.289043 79.6121516,191.908524 Z M222.999171,132.754842 C224.616958,132.754842 225.936732,134.075997 225.936732,135.695479 C225.936732,137.31496 224.616958,138.636116 222.999171,138.636116 C221.381384,138.636116 220.061611,137.31496 220.061611,135.695479 C220.061611,134.075997 221.338811,132.754842 222.999171,132.754842 Z M158.457983,52.0364885 L197.242299,52.0364885 C199.072952,52.0364885 200.563019,53.5281159 200.563019,55.3606868 L200.563019,63.6711825 L158.500556,63.6711825 L158.500556,64.523541 L200.563019,64.523541 L200.563019,71.5981169 C181.362442,68.9131875 163.694504,74.2404283 146.920607,82.7640137 L144.02562,76.6696501 L158.457983,52.0364885 Z M146.19686,83.147575 C143.2593,84.6392024 140.364312,86.2586837 137.469325,87.9207828 L143.51474,77.6072445 L146.19686,83.147575 Z M146.537447,83.8720798 L152.966022,97.2541087 L137.511898,88.8157593 C140.492032,87.1110422 143.51474,85.448943 146.537447,83.8720798 Z M135.766391,88.9009951 C128.230909,93.3332595 120.865721,98.1490852 113.543106,102.964911 C105.198731,108.462623 96.6414889,114.045572 87.9565269,118.946633 L95.0662752,66.6970553 L135.766391,88.9009951 Z M135.085218,90.2647688 L103.240357,144.645243 L99.8344896,135.141446 L94.0019416,148.907036 L83.8694859,148.907036 L87.7862335,119.969464 C96.6840622,114.983166 105.369024,109.272364 113.96884,103.646798 C120.908294,99.1292975 127.975469,94.5265614 135.085218,90.2647688 Z M99.0681694,30.7701431 L94.3851017,65.3332816 L74.6736438,54.5935641 L77.3557644,51.9938706 L91.5326877,51.9938706 L91.5326877,51.141512 L78.2498047,51.141512 L99.0681694,30.7701431 Z M76.1211375,52.0364885 L73.8647503,54.2100028 L69.8628561,52.0364885 L76.1211375,52.0364885 Z M39.7209291,52.0364885 L68.117349,52.0364885 L73.2687235,54.8492717 L64.2431748,63.6711825 L36.4002084,63.6711825 L36.4002084,55.3606868 C36.357635,53.5281159 37.847702,52.0364885 39.7209291,52.0364885 Z M36.357635,64.523541 L63.3065612,64.523541 L36.357635,90.8614197 L36.357635,64.523541 L36.357635,64.523541 Z M36.357635,92.0547217 L64.5411882,64.523541 L83.5288992,64.523541 L83.5288992,63.6711825 L65.4352284,63.6711825 L74.0350437,55.2754509 L94.2573817,66.270876 L87.0199133,119.458049 C81.8259655,122.356068 76.5894443,125.040997 71.2677764,127.257129 C59.0492269,132.413898 47.5544243,134.885738 36.357635,134.672648 L36.357635,92.0547217 Z M36.357635,148.907036 L36.357635,135.525007 C36.7407951,135.525007 37.1239552,135.525007 37.5071153,135.525007 C54.962186,135.525007 71.225203,129.132318 86.84962,120.480879 L82.9754457,148.907036 L36.357635,148.907036 L36.357635,148.907036 Z M78.7606848,186.496047 L83.7417659,149.759394 L94.5553951,149.759394 L99.7493429,137.485432 L102.686904,145.625456 L78.7606848,186.496047 Z M147.644354,148.907036 L143.429593,140.553922 L132.786257,170.514325 L119.971681,124.018167 L108.945185,160.456494 L103.623517,145.668073 L136.575285,89.3271744 C136.575285,89.3271744 136.617858,89.3271744 136.617858,89.2845564 L153.562049,98.5326465 L177.658561,148.864418 L147.644354,148.864418 L147.644354,148.907036 L147.644354,148.907036 Z M200.605593,148.907036 L178.637748,148.907036 L154.881822,99.2997692 L200.605593,124.188638 L200.605593,148.907036 L200.605593,148.907036 Z M200.605593,123.208426 L154.243222,97.9786135 L147.303767,83.4885184 C150.752208,81.7411834 154.243222,80.1217022 157.734236,78.6726927 C172.762626,72.5357113 186.854403,70.4474328 200.605593,72.4078575 L200.605593,123.208426 L200.605593,123.208426 Z M225.723865,80.1643201 C225.766439,80.0364664 225.809012,79.9086126 225.936732,79.8659946 C226.064452,79.7807588 226.192172,79.7807588 226.319892,79.7807588 C226.575332,79.8233767 226.745625,80.1217022 226.703052,80.3774098 L226.490185,81.3576221 L225.510999,81.1445324 L225.723865,80.1643201 Z M227.809959,75.007551 C227.767386,75.2632586 227.469372,75.4337303 227.213932,75.3911123 C227.086212,75.3484944 226.958492,75.3058765 226.915919,75.1780227 C226.873345,75.0501689 226.830772,74.9223151 226.830772,74.7944614 L227.043639,73.8142491 L228.022826,74.0273387 L227.809959,75.007551 Z" id="Shape"></path>
                <path d="M42.190183,60.0060408 C43.2545166,60.0060408 44.1059835,59.1536823 44.1059835,58.0882341 C44.1059835,57.0227859 43.2545166,56.1704274 42.190183,56.1704274 C41.1258495,56.1704274 40.2743826,57.0227859 40.2743826,58.0882341 C40.2743826,59.1536823 41.1684228,60.0060408 42.190183,60.0060408 Z M42.190183,57.0654039 C42.7862098,57.0654039 43.2545166,57.5342011 43.2545166,58.130852 C43.2545166,58.727503 42.7862098,59.1963002 42.190183,59.1963002 C41.5941562,59.1963002 41.1258495,58.727503 41.1258495,58.130852 C41.1684228,57.5342011 41.6367296,57.0654039 42.190183,57.0654039 Z" id="Shape"></path>
                <path d="M48.3207444,60.0060408 C49.385078,60.0060408 50.2365449,59.1536823 50.2365449,58.0882341 C50.2365449,57.0227859 49.385078,56.1704274 48.3207444,56.1704274 C47.2564109,56.1704274 46.404944,57.0227859 46.404944,58.0882341 C46.404944,59.1536823 47.2564109,60.0060408 48.3207444,60.0060408 Z M48.3207444,57.0654039 C48.9167712,57.0654039 49.385078,57.5342011 49.385078,58.130852 C49.385078,58.727503 48.9167712,59.1963002 48.3207444,59.1963002 C47.7247176,59.1963002 47.2564109,58.727503 47.2564109,58.130852 C47.2564109,57.5342011 47.7247176,57.0654039 48.3207444,57.0654039 Z" id="Shape"></path>
                <path d="M54.4087325,60.0060408 C55.4730661,60.0060408 56.3245329,59.1536823 56.3245329,58.0882341 C56.3245329,57.0227859 55.4730661,56.1704274 54.4087325,56.1704274 C53.3443989,56.1704274 52.4929321,57.0227859 52.4929321,58.0882341 C52.4929321,59.1536823 53.3443989,60.0060408 54.4087325,60.0060408 Z M54.4087325,57.0654039 C55.0047593,57.0654039 55.4730661,57.5342011 55.4730661,58.130852 C55.4730661,58.727503 55.0047593,59.1963002 54.4087325,59.1963002 C53.8127057,59.1963002 53.3443989,58.727503 53.3443989,58.130852 C53.3443989,57.5342011 53.8127057,57.0654039 54.4087325,57.0654039 Z" id="Shape"></path>
                <polygon id="Path" points="192.516658 60.1338946 193.921578 58.6848851 195.369072 60.1338946 195.965098 59.5372436 194.560178 58.0882341 195.965098 56.6818425 195.369072 56.0425736 193.921578 57.4915831 192.516658 56.0425736 191.920631 56.6818425 193.325551 58.0882341 191.920631 59.5372436"></polygon>
                <path d="M25.5014325,28.2130675 L26.2677527,28.6392467 C26.8637795,27.5311807 28.0558331,26.8492938 29.3330334,26.8492938 L29.3330334,26.8492938 L29.3330334,25.9969353 L29.3330334,25.9969353 C27.7152464,25.9543174 26.2677527,26.8492938 25.5014325,28.2130675 Z" id="Path"></path>
                <path d="M19.1580044,128.791375 C17.242204,128.87661 15.7947103,130.496092 15.8372836,132.37128 C15.9224303,134.246469 17.4550707,135.695479 19.2857244,135.695479 C19.3282978,135.695479 19.3708711,135.695479 19.4134445,135.695479 C21.3292449,135.610243 22.7767386,133.990762 22.7341652,132.115573 C22.6490185,130.197766 21.0738048,128.706139 19.1580044,128.791375 Z M19.4134445,134.84312 C17.9659508,134.885738 16.7738972,133.777672 16.7313238,132.328662 C16.6887505,130.879653 17.7956574,129.686351 19.2431511,129.643733 C20.6906448,129.601115 21.8826984,130.709181 21.9252717,132.158191 C21.9678451,133.564582 20.8183648,134.800502 19.4134445,134.84312 Z" id="Shape"></path>
            </g>
            <g id="highlights" transform="translate(97.036093, 66.989384)">
                <g id="Group">
                    <ellipse id="Oval" fill="#2760FF" cx="22.9472707" cy="22.4921126" rx="22.561962" ry="22.4070762"></ellipse>
                    <path d="M40.6714685,24.8731301 C42.2555152,23.9377304 43.882374,23.0448488 45.5092327,22.1519672 C45.5092327,21.85434 45.5092327,21.5141946 45.4664206,21.2165674 C43.8395619,22.0669308 42.2555152,22.9598124 40.6286565,23.8952122 L44.7814275,16.879714 C44.6958033,16.4970504 44.5673671,16.1143869 44.4389309,15.7317233 L39.4727305,24.2353576 L6.97836776,6.67535288 C6.7643074,6.88794373 6.55024704,7.10053459 6.37899875,7.31312545 L38.9161736,24.8731301 C31.3384368,29.29502 23.9319483,34.0995733 16.5682719,38.9041266 C14.9842253,39.9245628 13.4001786,40.9449989 11.8161319,41.965435 C12.1158164,42.1355077 12.3726889,42.2630622 12.6723734,42.4331349 C14.1279838,41.4977351 15.5835943,40.5623353 16.9963926,39.6269356 C23.9319483,35.1200094 31.0387523,30.5280469 38.1883684,26.2762298 L27.4853503,44.4314889 C27.870659,44.3464526 28.2559676,44.2614162 28.6412763,44.1763799 L39.729603,25.3833482 C39.729603,25.3833482 39.772415,25.3833482 39.772415,25.34083 L44.7814275,28.0194748 C44.8670516,27.7218476 44.9098637,27.4667386 44.9954878,27.1691114 L40.6714685,24.8731301 Z" id="Path" fill="#1251FF"></path>
                </g>
                <path d="M22.9472707,130.445749 C27.27129,130.445749 30.8246919,126.959259 30.8246919,122.622406 C30.8246919,119.348507 26.2866123,111.652718 24.1031966,108.166228 C23.717888,107.528455 22.9044586,107.358382 22.2622775,107.741046 C22.0910292,107.8686 21.9197809,107.996155 21.8341568,108.166228 C19.6507411,111.652718 15.1126615,119.348507 15.1126615,122.622406 C15.0698494,126.959259 18.6232514,130.445749 22.9472707,130.445749 Z" id="Path" fill="#2760FF"></path>
            </g>
            <g id="bubbles" transform="translate(33.494692, 0.000000)">
                <ellipse id="Oval" fill="#E9DBFF" cx="118.254059" cy="171.037321" rx="6.64300801" ry="6.65216209"></ellipse>
                <ellipse id="Oval" fill="#E9DBFF" cx="8.09084309" cy="165.707063" rx="8.09084309" ry="8.10199229"></ellipse>
                <ellipse id="Oval" fill="#E9DBFF" cx="39.3044641" cy="37.7382273" rx="3.32150401" ry="3.32608105"></ellipse>
                <g id="Group" transform="translate(67.707582, 0.000000)">
                    <ellipse id="Oval" fill="#E9DBFF" cx="7.36692555" cy="7.16386687" rx="7.15400863" ry="7.16386687"></ellipse>
                    <path d="M7.36692555,10.9590106 C7.83534278,10.9590106 8.30376002,10.8737265 8.72959386,10.7031582 L10.1774289,13.7307448 C10.4329293,13.6028186 10.6884296,13.4748924 10.9439299,13.3469662 L9.49609479,10.3193797 C10.518096,9.63710662 11.1568468,8.48577087 11.1568468,7.16386687 C11.1568468,5.0744057 9.4535114,3.36872311 7.36692555,3.36872311 C5.2803397,3.36872311 3.57700431,5.0744057 3.57700431,7.16386687 C3.57700431,9.25332804 5.2803397,10.9590106 7.36692555,10.9590106 Z M7.36692555,4.17892234 C8.98509417,4.17892234 10.3051791,5.50082635 10.3051791,7.1212248 C10.3051791,8.74162326 8.98509417,10.0635273 7.36692555,10.0635273 C5.74875693,10.0635273 4.42867201,8.74162326 4.42867201,7.1212248 C4.42867201,5.54346841 5.74875693,4.17892234 7.36692555,4.17892234 Z" id="Shape" fill="#DBB7FD"></path>
                </g>
                <g id="Group" transform="translate(180.979385, 130.058297)">
                    <ellipse id="Oval" fill="#E9DBFF" cx="8.43151017" cy="8.6989812" rx="8.43151017" ry="8.44312881"></ellipse>
                    <path d="M8.43151017,4.90383744 C7.06884186,4.90383744 5.91909047,5.62875254 5.23775632,6.69480416 L1.19233477,4.47741679 C1.06458462,4.73326918 0.936834463,4.98912157 0.809084309,5.24497396 L4.89708924,7.46236132 C4.76933909,7.8461399 4.68417232,8.27256055 4.68417232,8.74162326 C4.68417232,10.8310844 6.3875077,12.536767 8.47409356,12.536767 C10.5606794,12.536767 12.2640148,10.8310844 12.2640148,8.74162326 C12.2640148,6.65216209 10.518096,4.90383744 8.43151017,4.90383744 Z M8.43151017,11.6412837 C6.81334155,11.6412837 5.49325663,10.3193797 5.49325663,8.6989812 C5.49325663,7.07858274 6.81334155,5.75667873 8.43151017,5.75667873 C10.0496788,5.75667873 11.3697637,7.07858274 11.3697637,8.6989812 C11.3697637,10.3193797 10.0496788,11.6412837 8.43151017,11.6412837 Z" id="Shape" fill="#DBB7FD"></path>
                </g>
                <g id="Group" transform="translate(122.214314, 14.498302)">
                    <path d="M18.6941059,0.213210323 C10.2625957,0.213210323 3.0660037,7.54764545 0.511000616,10.4899479 C-0.0851667694,11.1722209 -0.0851667694,12.2382726 0.511000616,12.9205456 C3.0660037,15.9054901 10.2625957,23.1972832 18.6941059,23.1972832 C27.1256161,23.1972832 34.3222081,15.8628481 36.8772111,12.9205456 C37.4733785,12.2382726 37.4733785,11.1722209 36.8772111,10.4899479 C34.3222081,7.54764545 27.1256161,0.213210323 18.6941059,0.213210323 Z M18.6941059,17.8670251 C15.2874351,17.8670251 12.5620985,15.0952909 12.5620985,11.7265678 C12.5620985,8.31520261 15.3300185,5.58611047 18.6941059,5.58611047 C22.0581933,5.58611047 24.8261133,8.35784468 24.8261133,11.7265678 L24.8261133,11.7265678 C24.8261133,15.137933 22.1007767,17.8670251 18.6941059,17.8670251 Z" id="Shape" fill="#E9DBFF"></path>
                    <path d="M13.3285994,22.3017998 L16.2242696,17.3553203 C15.9687693,17.2273941 15.713269,17.0994679 15.4577686,16.9715417 L12.5195151,22.0033054 C12.7750154,22.0885895 13.0730991,22.2165157 13.3285994,22.3017998 Z" id="Path" fill="#DBB7FD"></path>
                </g>
            </g>
            <path d="M167.249537,97.8468934 C168.014505,99.3387013 168.184498,101.043625 167.674519,102.620679 C167.164541,104.197733 166.102086,105.519048 164.614648,106.286264 C161.682272,107.820695 159.812351,110.974803 159.897348,114.299403 C160.06734,120.309258 159.047384,128.748628 153.352624,134.673236 C149.060305,139.106037 142.813069,141.36506 134.780908,141.36506 C133.718453,141.36506 132.868489,140.512599 132.868489,139.447022 C132.868489,138.381445 133.718453,137.528983 134.780908,137.528983 C141.708116,137.528983 147.06289,135.653567 150.590241,131.987982 C155.392538,127.043705 156.200004,119.712535 156.072509,114.384649 C155.945015,109.610864 158.622401,105.092817 162.829724,102.876417 C164.019674,102.279694 164.444656,100.787886 163.849681,99.5944398 L162.107254,96.3977086 C157.687441,88.2140768 155.392538,78.9222449 155.392538,69.630413 C155.392538,53.0500341 131.296055,48.6172335 117.059157,48.6172335 C109.494476,48.6172335 103.034749,50.2369106 97.8499679,53.4336418 C89.4778215,58.5910347 83.9105566,67.2861435 82.5931122,77.3451909 L69.8436507,174.184834 C69.716156,175.165164 68.9086901,175.847134 67.9312314,175.847134 C67.846235,175.847134 67.7612386,175.847134 67.6762422,175.847134 C66.6137871,175.719265 65.8913176,174.738934 66.0188122,173.71598 L78.7682738,76.876337 C80.255711,65.6664664 86.5029471,55.9484036 95.8525523,50.1942875 C101.632308,46.6139486 108.772007,44.8237792 117.059157,44.8237792 C120.416515,44.8237792 132.273514,45.1647639 142.685575,49.2565797 C153.480119,53.518888 159.217376,60.5943196 159.217376,69.630413 C159.217376,78.3255218 161.384785,86.9353844 165.507111,94.6075392 L167.249537,97.8468934" id="person" fill="#071640"></path>
        </g>
    </g>
</svg>