
<svg width="20px" height="20px" viewBox="0 0 20 20" version="1.1" xmlns="http://www.w3.org/2000/svg" xmlns:xlink="http://www.w3.org/1999/xlink">
    <defs>
        <path d="M0,16.0005 L0,0.0005 L14,0.0005 L14,16.0005 L0,16.0005 Z M2,14.0005 L12,14.0005 L12,2.0005 L2,2.0005 L2,14.0005 Z M5,9 C4.44771525,9 4,8.55228475 4,8 C4,7.44771525 4.44771525,7 5,7 L9,7 C9.55228475,7 10,7.44771525 10,8 C10,8.55228475 9.55228475,9 9,9 L5,9 Z M5,12 C4.44771525,12 4,11.5522847 4,11 C4,10.4477153 4.44771525,10 5,10 L9,10 C9.55228475,10 10,10.4477153 10,11 C10,11.5522847 9.55228475,12 9,12 L5,12 Z M5,6 C4.44771525,6 4,5.55228475 4,5 C4,4.44771525 4.44771525,4 5,4 L8,4 C8.55228475,4 9,4.44771525 9,5 C9,5.55228475 8.55228475,6 8,6 L5,6 Z M16.6158152,5.6229592 C16.0700504,5.53834662 15.6962127,5.02732483 15.7808253,4.48156009 C15.8654379,3.93579535 16.3764597,3.56195765 16.9222244,3.64657023 L19.9162161,4.11074342 L17.4682554,19.9219182 L3.63409399,17.7811115 L4.09574543,14.7930763 C4.1800729,14.2472675 4.69089933,13.8731629 5.2367082,13.9574903 C5.78251707,14.0418178 6.15662166,14.5526442 6.07229419,15.0984531 L5.91594563,16.1104179 L15.7977842,17.6396112 L17.6338235,5.78078602 L16.6158152,5.6229592 Z" id="path-1"></path>
    </defs>
    <g id="round-III" stroke="none" stroke-width="1" fill="none" fill-rule="evenodd">
        <g id="dp-cores-ds_landing" transform="translate(-48.000000, -563.000000)">
            <g id="Group-5" transform="translate(48.000000, 563.000000)">
                <g id="files">
                    <mask id="mask-2" fill="white">
                        <use xlink:href="#path-1"></use>
                    </mask>
                    <use id="Mask" fill="#303133" fill-rule="nonzero" xlink:href="#path-1"></use>
                </g>
            </g>
        </g>
    </g>
</svg>