
<svg width="20px" height="20px" viewBox="0 0 20 20" version="1.1" xmlns="http://www.w3.org/2000/svg" xmlns:xlink="http://www.w3.org/1999/xlink">
    <g id="round-III" stroke="none" stroke-width="1" fill="none" fill-rule="evenodd">
        <g id="dp-cores-ds_landing" transform="translate(-188.000000, -563.000000)" fill="#303133">
            <g id="Group-7" transform="translate(188.000000, 563.000000)">
                <g id="Group-9">
                    <path d="M0,20 L20,20 L20,8 L0,8 L0,20 Z M2,18 L18,18 L18,10 L2,10 L2,18 Z" id="Fill-1"></path>
                    <g id="Group-8" transform="translate(2.000000, 0.000000)">
                        <path d="M11,15 L5,15 C4.447,15 4,14.553 4,14 C4,13.447 4.447,13 5,13 L11,13 C11.553,13 12,13.447 12,14 C12,14.553 11.553,15 11,15" id="Fill-2"></path>
                        <path d="M13,2 L3,2 C2.447,2 2,1.553 2,1 C2,0.447 2.447,0 3,0 L13,0 C13.553,0 14,0.447 14,1 C14,1.553 13.553,2 13,2" id="Fill-4"></path>
                        <path d="M15,6 L1,6 C0.447,6 0,5.553 0,5 C0,4.447 0.447,4 1,4 L15,4 C15.553,4 16,4.447 16,5 C16,5.553 15.553,6 15,6" id="Fill-6"></path>
                    </g>
                </g>
            </g>
        </g>
    </g>
</svg>