
<svg width="20px" height="20px" viewBox="0 0 20 20" version="1.1" xmlns="http://www.w3.org/2000/svg" xmlns:xlink="http://www.w3.org/1999/xlink">
    <defs>
        <polygon id="path-1" points="0 0 7.9996 0 7.9996 5 0 5"></polygon>
    </defs>
    <g id="round-III" stroke="none" stroke-width="1" fill="none" fill-rule="evenodd">
        <g id="dp-cores-ds_landing" transform="translate(-320.000000, -563.000000)">
            <g id="Group-6" transform="translate(320.000000, 563.000000)">
                <g id="Group-25">
                    <path d="M9.9999,20 L9.9999,7 L9.9999,20 Z" id="Fill-1" fill="#303133"></path>
                    <polygon id="Fill-2" fill="#303133" points="9 20 11 20 11 7 9 7"></polygon>
                    <g id="Group-24">
                        <path d="M10,2 C8.897,2 8,2.897 8,4 C8,5.103 8.897,6 10,6 C11.103,6 12,5.103 12,4 C12,2.897 11.103,2 10,2 M10,8 C7.794,8 6,6.206 6,4 C6,1.794 7.794,0 10,0 C12.206,0 14,1.794 14,4 C14,6.206 12.206,8 10,8" id="Fill-3" fill="#303133"></path>
                        <path d="M18,5 L13,5 C12.448,5 12,4.553 12,4 C12,3.447 12.448,3 13,3 L18,3 C18.552,3 19,3.447 19,4 C19,4.553 18.552,5 18,5" id="Fill-5" fill="#303133"></path>
                        <path d="M7,5 L2,5 C1.448,5 1,4.553 1,4 C1,3.447 1.448,3 2,3 L7,3 C7.552,3 8,3.447 8,4 C8,4.553 7.552,5 7,5" id="Fill-7" fill="#303133"></path>
                        <path d="M7,11 C7,12.657 5.657,14 4,14 C2.343,14 1,12.657 1,11 L7,11 Z" id="Fill-9" fill="#303133"></path>
                        <g id="Group-13" transform="translate(0.000000, 10.000000)">
                            <mask id="mask-2" fill="white">
                                <use xlink:href="#path-1"></use>
                            </mask>
                            <g id="Clip-12"></g>
                            <path d="M2.2686,2 C2.6146,2.598 3.2616,3 3.9996,3 C4.7386,3 5.3856,2.598 5.7316,2 L2.2686,2 Z M3.9996,5 C1.7946,5 -0.0004,3.206 -0.0004,1 L-0.0004,0 L7.9996,0 L7.9996,1 C7.9996,3.206 6.2056,5 3.9996,5 Z" id="Fill-11" fill="#303133" mask="url(#mask-2)"></path>
                        </g>
                        <path d="M6,11.5 C5.791,11.5 5.596,11.367 5.526,11.158 L4,6.581 L2.474,11.158 C2.387,11.419 2.106,11.562 1.842,11.475 C1.58,11.387 1.438,11.104 1.526,10.842 L3.526,4.842 C3.662,4.434 4.338,4.434 4.474,4.842 L6.474,10.842 C6.562,11.104 6.42,11.387 6.158,11.475 C6.105,11.492 6.052,11.5 6,11.5" id="Fill-14" fill="#303133"></path>
                        <path d="M19,11 C19,12.657 17.657,14 16,14 C14.343,14 13,12.657 13,11 L19,11 Z" id="Fill-16" fill="#303133"></path>
                        <path d="M14.2686,12 C14.6146,12.598 15.2616,13 15.9996,13 C16.7386,13 17.3856,12.598 17.7316,12 L14.2686,12 Z M15.9996,15 C13.7946,15 11.9996,13.206 11.9996,11 L11.9996,10 L19.9996,10 L19.9996,11 C19.9996,13.206 18.2056,15 15.9996,15 Z" id="Fill-18" fill="#303133"></path>
                        <path d="M18,11.5 C17.791,11.5 17.596,11.367 17.526,11.158 L16,6.581 L14.474,11.158 C14.387,11.419 14.106,11.562 13.842,11.475 C13.58,11.387 13.438,11.104 13.526,10.842 L15.526,4.842 C15.662,4.434 16.338,4.434 16.474,4.842 L18.474,10.842 C18.562,11.104 18.42,11.387 18.158,11.475 C18.105,11.492 18.052,11.5 18,11.5" id="Fill-20" fill="#303133"></path>
                        <polygon id="Fill-22" fill="#303133" points="5 20 5 19 9 18 11 18 15 19 15 20"></polygon>
                    </g>
                </g>
            </g>
        </g>
    </g>
</svg>