 <svg viewBox="0 0 652 164" version="1.1" xmlns="http://www.w3.org/2000/svg" xmlns:xlink="http://www.w3.org/1999/xlink">
    <defs>
        <linearGradient x1="-0.0269541779%" y1="50.0191536%" x2="99.9730458%" y2="50.0191536%" id="linearGradient-1">
            <stop stop-color="#C600FF" offset="0%"></stop>
            <stop stop-color="#3200CC" offset="75%"></stop>
            <stop stop-color="#0000BB" offset="100%"></stop>
        </linearGradient>
        <linearGradient x1="-0.0295173581%" y1="49.9999667%" x2="99.9706232%" y2="49.9999667%" id="linearGradient-2">
            <stop stop-color="#C600FF" offset="0%"></stop>
            <stop stop-color="#3200CC" offset="75%"></stop>
            <stop stop-color="#0000BB" offset="100%"></stop>
        </linearGradient>
        <linearGradient x1="100%" y1="50%" x2="0%" y2="50%" id="linearGradient-3">
            <stop stop-color="#FFFF00" offset="0%"></stop>
            <stop stop-color="#FF8200" offset="100%"></stop>
        </linearGradient>
    </defs>
    <g id="logo" stroke="none" stroke-width="1" fill="none" fill-rule="evenodd">
        <g id="color_text" transform="translate(-380.000000, -368.000000)" fill-rule="nonzero">
            <path d="M520.29096,479.799912 C504.14096,479.799912 499.35096,487.799912 494.29096,496.179912 C490.39096,502.659912 485.98096,510.009912 476.13096,510.009912 C456.19096,510.009912 448.95096,469.369912 442.13096,420.289912 C441.31096,414.289912 440.42096,407.939912 439.58096,402.699912 C438.03096,409.309912 436.39096,417.699912 435.03096,424.699912 C427.43096,463.819912 423.40096,479.749912 414.03096,479.749912 C403.73096,479.749912 395.29096,479.699912 388.25096,479.609912 C398.76096,507.609912 417.81096,530.779912 436.46096,531.549912 C472.64096,533.049912 518.27096,506.459912 536.65096,479.749912 L520.29096,479.799912 Z" id="Path" fill="url(#linearGradient-1)"></path>
            <path d="M413.09096,470.069912 C417.21096,465.429912 422.36096,438.919912 425.47096,422.899912 C431.56096,391.569912 433.47096,383.369912 440.23096,383.369912 C446.84096,383.369912 447.88096,390.909912 451.76096,418.949912 C455.13096,443.289912 463.02096,500.279912 476.10096,500.279912 C480.10096,500.279912 481.95096,497.779912 485.93096,491.159912 C491.28096,482.259912 498.61096,470.069912 520.27096,470.069912 L542.27096,470.069912 C549.99096,453.279912 545.27096,441.569912 535.91096,433.219912 C525.45442,444.290329 508.710575,446.609783 495.63846,438.79869 C482.566345,430.987597 476.676012,415.143349 481.47096,400.689912 C476.600277,396.451424 472.069704,391.837261 467.92096,386.889912 C442.15096,356.189912 383.18096,357.079912 380.07096,433.749912 C379.60096,445.449912 381.49096,457.899912 384.99096,469.889912 C392.29096,469.999912 401.52096,470.059912 413.09096,470.069912 Z" id="Path" fill="url(#linearGradient-2)"></path>
            <circle id="Oval" fill="url(#linearGradient-3)" cx="512.29096" cy="410.869912" r="24.18"></circle>
            <path d="M584.16096,494.999912 L586.73096,491.359912 C588.55096,488.939912 590.68096,488.639912 593.56096,490.449912 C597.36096,493.189912 605.56096,499.099912 616.95096,499.099912 C628.34096,499.099912 635.76096,493.029912 635.76096,483.769912 C635.76096,460.099912 584.16096,465.409912 584.16096,432.009912 C584.16096,413.939912 599.33096,402.249912 618.92096,402.249912 C631.67096,402.249912 641.69096,407.249912 645.79096,410.449912 C648.37096,412.269912 648.67096,414.549912 647.30096,417.279912 L645.18096,421.079912 C643.36096,424.269912 640.93096,423.969912 638.35096,422.439912 C634.25096,420.009912 627.72096,416.219912 618.62096,416.219912 C607.53096,416.219912 599.33096,421.979912 599.33096,431.219912 C599.33096,454.289912 650.95096,448.059912 650.95096,482.529912 C650.95096,499.379912 638.35096,513.049912 616.95096,513.049912 C605.299716,512.99514 593.989402,509.1126 584.76096,501.999912 C582.79096,500.179912 581.87096,498.049912 584.16096,494.999912 Z" id="Path" fill="#24245B"></path>
            <path d="M671.11096,409.089912 C671.11096,405.756579 672.777627,404.089912 676.11096,404.089912 L710.29096,404.089912 C729.87096,404.089912 743.84096,417.289912 743.84096,437.639912 C743.84096,457.989912 729.84096,471.639912 710.29096,471.639912 L685.99096,471.639912 L685.99096,506.249912 C685.99096,509.583245 684.324293,511.249912 680.99096,511.249912 L676.13096,511.249912 C672.797627,511.249912 671.13096,509.583245 671.13096,506.249912 L671.11096,409.089912 Z M707.85096,458.579912 C720.75096,458.579912 728.64096,450.579912 728.64096,437.639912 C728.64096,424.699912 720.75096,417.139912 708.00096,417.139912 L686.00096,417.139912 L686.00096,458.579912 L707.85096,458.579912 Z" id="Shape" fill="#24245B"></path>
            <path d="M780.09096,408.189912 C780.668047,405.605306 783.073566,403.85039 785.71096,404.089912 L792.99096,404.089912 C795.617194,403.890168 797.999401,405.628077 798.61096,408.189912 L833.83096,505.489912 C835.05096,508.989912 833.38096,511.259912 829.74096,511.259912 L824.57096,511.259912 C821.953232,511.437626 819.586579,509.707987 818.96096,507.159912 L809.39096,480.439912 L769.01096,480.439912 L759.60096,507.159912 C759.035268,509.686613 756.71489,511.425836 754.13096,511.259912 L748.97096,511.259912 C745.18096,511.259912 743.65096,508.989912 744.87096,505.489912 L780.09096,408.189912 Z M805.44096,467.999912 L793.60096,433.999912 C791.78096,428.539912 789.51096,418.819912 789.51096,418.819912 L789.20096,418.819912 C789.20096,418.819912 786.77096,428.539912 784.95096,433.999912 L772.95096,467.999912 L805.44096,467.999912 Z" id="Shape" fill="#24245B"></path>
            <path d="M850.04096,409.089912 C850.04096,405.756579 851.707627,404.089912 855.04096,404.089912 L883.89096,404.089912 C894.37096,404.089912 899.53096,404.989912 903.89096,406.969912 C914.06096,411.529912 920.74096,421.389912 920.74096,435.049912 C920.74096,448.709912 913.46096,460.549912 901.61096,464.509912 L901.61096,464.809912 C902.842939,466.311227 903.915379,467.936644 904.81096,469.659912 L924.08096,505.339912 C926.08096,508.829912 924.54096,511.259912 920.74096,511.259912 L914.67096,511.259912 C911.79096,511.259912 909.96096,510.199912 908.75096,507.769912 L887.75096,468.599912 L864.92096,468.599912 L864.92096,506.249912 C864.92096,509.583245 863.254293,511.249912 859.92096,511.249912 L855.06096,511.249912 C851.727627,511.249912 850.06096,509.583245 850.06096,506.249912 L850.04096,409.089912 Z M886.47096,455.539912 C898.17096,455.539912 905.60096,447.659912 905.60096,435.659912 C905.60096,427.919912 902.26096,421.849912 895.60096,418.969912 C892.87096,417.749912 889.68096,417.139912 882.85096,417.139912 L864.92096,417.139912 L864.92096,455.539912 L886.47096,455.539912 Z" id="Shape" fill="#24245B"></path>
            <path d="M991.50096,402.259912 C1009.87096,402.259912 1021.71096,409.399912 1027.02096,413.339912 C1029.45096,415.169912 1029.61096,417.599912 1027.94096,420.339912 L1025.94096,423.339912 C1024.11096,426.069912 1021.84096,426.339912 1018.94096,424.559912 C1011.03368,419.115361 1001.68091,416.155624 992.08096,416.059912 C967.18096,416.059912 952.46096,434.279912 952.46096,456.889912 C952.46096,479.659912 967.46096,499.249912 992.23096,499.249912 C1006.35096,499.249912 1016.67096,492.419912 1021.38096,488.769912 C1023.96096,486.769912 1026.38096,486.769912 1028.38096,489.379912 L1030.66096,492.379912 C1032.48096,494.809912 1032.33096,497.239912 1029.90096,499.379912 C1019.19695,508.263456 1005.71105,513.102097 991.80096,513.049912 C958.70096,513.049912 936.99096,488.449912 936.99096,457.049912 C937.00096,425.999912 959.47096,402.259912 991.50096,402.259912 Z" id="Path" fill="#24245B"></path>
        </g>
    </g>
</svg>